<?xml version="1.0" standalone="no"?>
<!DOCTYPE svg PUBLIC "-//W3C//DTD SVG 20010904//EN"
 "http://www.w3.org/TR/2001/REC-SVG-20010904/DTD/svg10.dtd">
<svg version="1.0" xmlns="http://www.w3.org/2000/svg"
 width="200.000000pt" height="200.000000pt" viewBox="0 0 200.000000 200.000000"
 preserveAspectRatio="xMidYMid meet">

<g transform="translate(0.000000,200.000000) scale(0.100000,-0.100000)"
fill="#000000" stroke="none">
<path d="M820 1954 c-181 -39 -329 -182 -369 -355 -6 -26 -11 -222 -11 -479
l0 -435 -35 -19 c-53 -29 -113 -99 -148 -174 l-32 -67 -3 -198 -4 -197 782 0
782 0 -4 198 -3 198 -38 76 c-37 75 -101 146 -154 171 l-23 10 0 450 c0 437
-1 452 -21 494 -25 52 -76 96 -130 112 -23 7 -39 18 -39 27 0 56 -92 156 -162
175 -117 31 -279 37 -388 13z m346 -68 c28 -7 62 -21 75 -30 35 -22 69 -87 69
-130 0 -33 3 -36 28 -36 38 0 112 -39 136 -73 20 -28 21 -42 24 -467 l3 -438
-83 19 c-46 10 -109 24 -140 30 l-58 12 0 37 c0 30 8 45 46 85 58 60 94 136
105 223 4 37 8 151 9 255 l0 187 -34 0 c-19 0 -36 -6 -39 -13 -2 -7 -29 -26
-58 -42 -54 -29 -56 -30 -254 -35 -190 -5 -203 -7 -253 -31 -39 -20 -52 -22
-52 -12 0 10 -10 13 -32 11 l-33 -3 -3 -124 c-5 -221 23 -323 112 -416 37 -40
46 -55 46 -85 l0 -36 -137 -30 -138 -30 -3 410 c-2 445 1 483 53 572 62 105
182 185 305 203 79 12 237 5 306 -13z m142 -623 c-3 -198 -3 -198 -32 -251
-116 -208 -411 -222 -537 -24 -41 65 -49 101 -49 232 l0 115 33 22 c60 41 89
46 287 52 170 6 201 9 240 28 25 12 49 22 53 22 5 1 7 -88 5 -196z m-365 -475
c55 -11 115 -5 195 18 19 5 22 3 22 -21 0 -39 -147 -475 -160 -475 -13 0 -160
436 -160 475 0 24 3 26 23 21 12 -4 48 -12 80 -18z m-289 -160 c-25 -35 -56
-83 -69 -108 -25 -50 -69 -179 -63 -185 2 -2 59 12 127 32 l123 35 104 -103
c56 -56 105 -113 109 -126 7 -30 23 -30 30 0 4 13 53 70 109 126 l104 103 123
-35 c68 -20 125 -34 128 -32 7 7 -49 157 -76 205 -14 25 -43 69 -65 98 -21 28
-34 52 -29 52 6 0 49 -9 97 -20 150 -35 229 -94 282 -209 24 -51 27 -69 30
-213 l4 -158 -126 0 -126 0 0 65 0 65 -30 0 c-29 0 -29 -1 -32 -62 l-3 -63
-405 0 -405 0 -3 63 c-3 61 -3 62 -32 62 l-30 0 0 -65 0 -65 -126 0 -126 0 4
157 c3 144 6 163 29 213 53 113 127 171 269 207 127 32 127 32 74 -39z m200
-111 l53 -159 -58 58 c-46 46 -62 55 -81 51 -12 -4 -53 -15 -90 -26 l-67 -19
10 26 c21 55 72 134 122 188 28 31 53 52 54 48 2 -5 27 -80 57 -167z m484 11
c17 -29 35 -65 41 -80 l10 -26 -67 19 c-37 11 -78 22 -90 26 -19 4 -35 -5 -82
-52 l-58 -57 57 167 56 167 51 -55 c28 -31 65 -79 82 -109z"/>
</g>
</svg>
